<svg width="12" height="71" viewBox="0 0 12 71" fill="none" xmlns="http://www.w3.org/2000/svg">
<path id="Line 13" d="M6 0.666667C3.05448 0.666666 0.666667 3.05448 0.666667 6C0.666666 8.94552 3.05448 11.3333 6 11.3333C8.94552 11.3333 11.3333 8.94552 11.3333 6C11.3333 3.05448 8.94552 0.666667 6 0.666667ZM6 59.6667C3.05448 59.6667 0.666664 62.0545 0.666664 65C0.666664 67.9455 3.05448 70.3333 6 70.3333C8.94552 70.3333 11.3333 67.9455 11.3333 65C11.3333 62.0545 8.94552 59.6667 6 59.6667ZM5 6L5 8.10714L7 8.10714L7 6L5 6ZM5 12.3214L5 16.5357L7 16.5357L7 12.3214L5 12.3214ZM5 20.75L5 24.9643L7 24.9643L7 20.75L5 20.75ZM5 29.1786L5 33.3929L7 33.3929L7 29.1786L5 29.1786ZM5 37.6071L5 41.8214L7 41.8214L7 37.6071L5 37.6071ZM5 46.0357L5 50.25L7 50.25L7 46.0357L5 46.0357ZM5 54.4643L5 58.6786L7 58.6786L7 54.4643L5 54.4643ZM5 62.8929L5 65L7 65L7 62.8929L5 62.8929Z" fill="black" fill-opacity="0.6"/>
</svg>
